# AST/ASF file generated using VICON BodyLanguage
# -----------------------------------------------
:version 1.10
:name VICON
:units
  mass 1.0
  length 0.45
  angle deg
:documentation
   .ast/.asf automatically generated from VICON data using
   VICON BodyBuilder and BodyLanguage model FoxedUp or BRILLIANT.MOD
:root
   order TX TY TZ RX RY RZ
   axis XYZ
   position 0 0 0  
   orientation 0 0 0 
:bonedata
  begin
     id 1 
     name lhipjoint
     direction 0.54267 -0.795011 0.271047 
     length 2.39899 
     axis 0 0 0  XYZ
  end
  begin
     id 2 
     name lfemur
     direction 0.34202 -0.939693 0  
     length 7.49701  
     axis 0 0 20  XYZ
    dof rx ry rz
    limits (-160.0 20.0)
           (-70.0 70.0)
           (-60.0 70.0)
  end
  begin
     id 3 
     name ltibia
     direction 0.34202 -0.939693 0   
     length 8.1668   
     axis 0 0 20   XYZ
    dof rx
    limits (-10.0 170.0)
  end
  begin
     id 4 
     name lfoot
     direction 0.0736283 -0.202292 0.976554   
     length 2.13544   
     axis -90 7.62852e-016 20   XYZ
    dof rx rz
    limits (-45.0 90.0)
           (-70.0 20.0)
  end
  begin
     id 5 
     name ltoes
     direction 1.53557e-011 -4.22024e-011 1   
     length 1.07411   
     axis -90 7.62852e-016 20   XYZ
    dof rx
    limits (-90.0 20.0)
  end
  begin
     id 6 
     name rhipjoint
     direction -0.538061 -0.797813 0.272002   
     length 2.39057  
     axis 0 0 0  XYZ 
  end
  begin
     id 7 
     name rfemur
     direction -0.34202 -0.939693 0   
     length 7.50152   
     axis 0 0 -20   XYZ
    dof rx ry rz
    limits (-160.0 20.0)
           (-70.0 70.0)
           (-70.0 60.0)
  end
  begin
     id 8 
     name rtibia
     direction -0.34202 -0.939693 0   
     length 8.05793   
     axis 0 0 -20   XYZ
    dof rx
    limits (-10.0 170.0)
 end
 begin
     id 9 
     name rfoot
     direction -0.0765195 -0.210236 0.974652   
     length 2.28698  
     axis -90 -7.62852e-016 -20   XYZ
    dof rx rz
    limits (-45.0 90.0)
           (-20.0 70.0)
  end
  begin
     id 10 
     name rtoes
     direction -1.53542e-011 -4.21847e-011 1   
     length 1.14762   
     axis -90 -7.62852e-016 -20   XYZ
    dof rx
    limits (-90.0 20.0)
  end
  begin
     id 11 
     name lowerback
     direction -0.0217239 0.996592 -0.0795765   
     length 2.08176   
     axis 0 0 0   XYZ
    dof rx ry rz
    limits (-20.0 45.0)
           (-30.0 30.0)
           (-30.0 30.0)
  end
  begin
     id 12 
     name upperback
     direction -0.00563773 0.999651 -0.0258155   
     length 2.08898   
     axis 0 0 0   XYZ
    dof rx ry rz
    limits (-20.0 45.0)
           (-30.0 30.0)
           (-30.0 30.0)
  end
  begin
     id 13 
     name thorax
     direction 0.0032706 0.999923 0.0119599   
     length 2.0968   
     axis 0 0 0   XYZ
    dof rx ry rz
    limits (-20.0 45.0)
           (-30.0 30.0)
           (-30.0 30.0)
  end
  begin
     id 14 
     name lowerneck
     direction -0.0285886 0.99568 0.0883427   
     length 1.81272   
     axis 0 0 0   XYZ
    dof rx ry rz
    limits (-20.0 45.0)
           (-30.0 30.0)
           (-30.0 30.0)
  end
  begin
     id 15 
     name upperneck
     direction 0.0807535 0.97985 -0.18268   
     length 1.82518   
     axis 0 0 0   XYZ
    dof rx ry rz
    limits (-20.0 45.0)
           (-30.0 30.0)
           (-30.0 30.0)
  end
  begin
     id 16
     name head
     direction 0.0236605 0.997053 -0.0729767  
     length 1.84443  
     axis 0 0 0   XYZ
    dof rx ry rz
    limits (-20.0 45.0)
           (-30.0 30.0)
           (-30.0 30.0)
  end
  begin
     id 17 
     name lclavicle
     direction 0.918986 0.39378 -0.0200683  
     length 3.27822  
     axis 0 0 0   XYZ
    dof ry rz
    limits (-20.0 10.0)
           (0.0 20.0)
  end
  begin
     id 18 
     name lhumerus
     direction 1 -4.4897e-011 2.09544e-027   
     length 5.5568   
     axis 180 -30 -90   XYZ
    dof rx ry rz
    limits (-60.0 90.0)
           (-90.0 90.0)
           (-90.0 90.0)
  end
  begin
     id 19
     name lradius
     direction 1 -4.48957e-011 -1.27696e-026   
     length 3.63979   
     axis 180 -30 -90   XYZ
    dof rx
    limits (-10.0 170.0)
  end
  begin
     id 20
     name lwrist
     direction 1 -4.49001e-011 -1.49001e-026   
     length 1.8199   
     axis 9.0955e-015 90 90   XYZ
    dof ry
    limits (-180.0 0.0)
 end
  begin
     id 21 
     name lhand
     direction 1 -4.48709e-011 -2.9758e-026   
     length 0.569419   
     axis 1.90115e-014 90 90   XYZ
    dof rx rz
    limits (-90.0 90.0)
           (-45.0 45.0)
  end
  begin
     id 22 
     name lfingers
     direction 1 -4.49175e-011 -5.96505e-026   
     length 0.45908   
     axis 3.80223e-014 90 90   XYZ
    dof rx
    limits (0.0 90.0)
  end
  begin
     id 23
     name lthumb
     direction 0.707107 -6.34864e-011 0.707107   
     length 0.65915   
     axis -90 45 -3.84942e-014   XYZ
    dof rx rz
    limits (-45.0 45.0)
           (-45.0 45.0)
  end
  begin
     id 24 
     name rclavicle
     direction -0.911913 0.396426 -0.106115   
     length 3.46301  
     axis 0 0 0   XYZ 
    dof ry rz
    limits (-10.0 20.0)
           (-20.0 0.0)
  end
  begin
     id 25 
     name rhumerus
     direction -1 -4.48965e-011 7.78516e-028  
     length 5.34339   
     axis 180 30 90   XYZ
    dof rx ry rz
    limits (-90.0 60.0)
           (-90.0 90.0)
           (-90.0 90.0)
  end
  begin
     id 26 
     name rradius
     direction -1 -4.48948e-011 -5.79823e-027   
     length 3.65101   
     axis 180 30 90   XYZ
    dof rx
    limits (-10.0 170.0)
  end
  begin
     id 27 
     name rwrist
     direction -1 -4.48995e-011 -1.48996e-026   
     length 1.8255   
     axis 9.0955e-015 -90 -90   XYZ
    dof ry
    limits (-180.0 0.0)
  end
  begin
     id 28
     name rhand
     direction -1 -4.48957e-011 -2.97937e-026   
     length 0.694249   
     axis 1.90115e-014 -90 -90   XYZ
    dof rx rz
    limits (-90.0 90.0)
           (-45.0 45.0)
  end
  begin
     id 29
     name rfingers
     direction -1 -4.4898e-011 -5.95943e-026   
     length 0.559721   
     axis 3.80223e-014 -90 -90   XYZ
    dof rx
    limits (0.0 90.0)
  end
  begin
     id 30
     name rthumb
     direction -0.707107 -6.34969e-011 0.707107   
     length 0.803651   
     axis -90 -45 3.84942e-014   XYZ
    dof rx rz
    limits (-45.0 45.0)
           (-45.0 45.0)
  end
:hierarchy
  begin
    root lhipjoint rhipjoint lowerback
    lhipjoint lfemur
    lfemur ltibia
    ltibia lfoot
    lfoot ltoes
    rhipjoint rfemur
    rfemur rtibia
    rtibia rfoot
    rfoot rtoes
    lowerback upperback
    upperback thorax
    thorax lowerneck lclavicle rclavicle
    lowerneck upperneck
    upperneck head
    lclavicle lhumerus
    lhumerus lradius
    lradius lwrist
    lwrist lhand lthumb
    lhand lfingers
    rclavicle rhumerus
    rhumerus rradius
    rradius rwrist
    rwrist rhand rthumb
    rhand rfingers
  end

#!OML:ASF H:\Terrain\Walking\May29\JustinRory\rory.ASF
:FULLY-SPECIFIED
:DEGREES
159
root 12.347 18.4425 -7.37047 -5.41877 -38.545 5.04087
lowerback 0.0793199 2.84016 -2.76428
upperback 0.791661 3.79934 -1.56158
thorax 0.69361 1.88381 -0.0371648
lowerneck -13.8549 -0.226115 5.44648
upperneck 24.3634 -2.41076 2.1857
head 10.0348 -0.413575 -0.464565
rclavicle -5.06513e-014 -9.44227e-015
rhumerus -30.1196 25.8795 -104.881
rradius 70.8142
rwrist -12.0278
rhand -29.0408 38.9689
rfingers 7.12502
rthumb -2.39114 9.00253
lclavicle -5.06513e-014 -9.44227e-015
lhumerus -28.972 13.8774 62.5627
lradius 50.9031
lwrist 186.05
lhand -20.1597 -18.4077
lfingers 7.12502
lthumb 6.18562 11.4819
rfemur -3.07645 14.1671 13.4864
rtibia 20.018
rfoot -12.4083 -2.46733
rtoes 8.4958
lfemur -9.05718 -6.74558 -16.8863
ltibia 19.5539
lfoot -19.5566 23.3748
ltoes 20.8535
160
root 12.3282 18.4479 -7.44082 -5.60581 -39.2148 5.13104
lowerback 0.125047 2.96348 -2.73765
upperback 0.812135 3.96222 -1.51878
thorax 0.684674 1.96527 -0.0100374
lowerneck -13.5348 0.0054452 6.12844
upperneck 24.402 -2.1446 1.84265
head 9.98408 -0.271098 -0.664585
rclavicle 5.2372e-014 1.98785e-016
rhumerus -28.536 26.0247 -104.78
rradius 69.9986
rwrist -12.0189
rhand -28.1321 37.2577
rfingers 7.12502
rthumb -1.51345 7.28337
lclavicle 5.2372e-014 1.98785e-016
lhumerus -28.927 13.7808 62.7496
lradius 50.0141
lwrist 184.78
lhand -19.6093 -16.8272
lfingers 7.12502
lthumb 6.71703 13.0463
rfemur -3.19396 14.4348 13.6428
rtibia 19.8873
rfoot -12.3761 -2.19741
rtoes 8.55515
lfemur -8.79522 -6.57808 -16.7142
ltibia 19.24
lfoot -19.283 24.1534
ltoes 19.384
161
root 12.3156 18.4467 -7.52112 -5.52147 -39.8517 5.00323
lowerback 0.200538 3.07609 -2.59479
upperback 0.755659 4.10754 -1.36449
thorax 0.580297 2.04019 0.0617538
lowerneck -13.2382 0.157074 6.69004
upperneck 24.4605 -1.91181 1.31871
head 9.94308 -0.17406 -0.9126
rclavicle -2.76016e-014 7.55382e-015
rhumerus -26.9915 26.5575 -104.675
rradius 69.2207
rwrist -12.3901
rhand -27.6697 34.6401
rfingers 7.12502
rthumb -1.06689 4.66302
lclavicle -2.76016e-014 7.55382e-015
lhumerus -28.9198 13.7459 63.0869
lradius 49.1247
lwrist 183.462
lhand -20.5994 -16.7452
lfingers 7.12502
lthumb 5.76112 13.1565
rfemur -3.51605 15.2394 14.0025
rtibia 19.8741
rfoot -12.0696 -2.41869
rtoes 7.93595
lfemur -8.65521 -6.52865 -16.3563
ltibia 18.8457
lfoot -18.9972 24.9517
ltoes 17.9507
162
root 12.3127 18.4483 -7.58332 -5.81509 -40.3413 5.36081
lowerback 0.29275 3.19394 -2.50111
upperback 0.727681 4.2605 -1.41254
thorax 0.507464 2.11821 -0.0458963
lowerneck -13.317 0.267501 7.15857
upperneck 24.9144 -1.79662 0.91121
head 10.1183 -0.111123 -1.12362
rclavicle -4.03001e-014 -1.66482e-014
rhumerus -25.1362 27.3653 -104.499
rradius 67.9677
rwrist -12.8206
rhand -28.0621 33.5996
rfingers 7.12502
rthumb -1.44589 3.62477
lclavicle -4.03001e-014 -1.66482e-014
lhumerus -28.9603 13.7032 63.4538
lradius 48.2762
lwrist 182.275
lhand -22.7794 -17.5873
lfingers 7.12502
lthumb 3.6561 12.3611
rfemur -3.72346 15.0273 13.7622
rtibia 19.8471
rfoot -11.8171 -1.73237
rtoes 6.91193
lfemur -8.43736 -6.72858 -16.4824
ltibia 18.5273
lfoot -19.2717 25.5264
ltoes 18.3522
163
root 12.3094 18.4482 -7.64677 -6.02563 -40.8521 5.55897
lowerback 0.419475 3.3466 -2.16413
upperback 0.712672 4.45979 -1.52566
thorax 0.452334 2.2206 -0.356252
lowerneck -13.5927 0.382842 7.70982
upperneck 25.395 -1.7429 0.610381
head 10.3442 -0.0531605 -1.32099
rclavicle 3.64312e-014 1.4884e-014
rhumerus -24.1149 27.4634 -104.385
rradius 67.5277
rwrist -12.8001
rhand -28.5127 34.2076
rfingers 7.12502
rthumb -1.88111 4.23619
lclavicle 3.64312e-014 1.4884e-014
lhumerus -28.8457 13.5209 63.7425
lradius 47.4837
lwrist 181.166
lhand -23.7917 -17.9201
lfingers 7.12502
lthumb 2.67857 12.0428
rfemur -3.94168 14.5788 13.6427
rtibia 19.8128
rfoot -11.7093 -0.821944
rtoes 6.44393
lfemur -8.27789 -6.62975 -16.4785
ltibia 18.2915
lfoot -19.4527 25.9922
ltoes 19.2825
164
root 12.2996 18.4501 -7.7166 -5.73192 -41.2782 5.16176
lowerback 0.430382 3.42674 -1.59384
upperback 0.684632 4.56755 -1.42359
thorax 0.452428 2.27791 -0.569002
lowerneck -13.709 0.47924 8.1653
upperneck 25.5613 -1.65072 0.273017
head 10.426 -0.00102045 -1.50785
rclavicle 9.27668e-015 6.32384e-015
rhumerus -22.9279 28.051 -104.104
rradius 66.8071
rwrist -12.9922
rhand -28.8536 34.5928
rfingers 7.12502
rthumb -2.21029 4.62448
lclavicle 9.27668e-015 6.32384e-015
lhumerus -28.4864 13.3742 64.0754
lradius 46.4747
lwrist 179.855
lhand -24.3782 -17.9183
lfingers 7.12502
lthumb 2.11206 12.051
rfemur -4.19051 14.4379 14.0814
rtibia 19.6845
rfoot -11.5664 -0.230275
rtoes 6.7928
lfemur -8.31521 -6.4215 -15.9314
ltibia 18.1126
lfoot -19.4926 26.3657
ltoes 20.1901
165
root 12.2868 18.4534 -7.78155 -5.50948 -41.6015 4.9837
lowerback 0.291988 3.45811 -1.35248
upperback 0.674751 4.61329 -1.28007
thorax 0.526721 2.30172 -0.547235
lowerneck -13.7597 0.604359 8.54974
upperneck 25.7027 -1.47767 -0.115957
head 10.4892 0.0741851 -1.69094
rclavicle 8.74078e-014 5.98839e-015
rhumerus -21.7486 28.7275 -103.746
rradius 66.012
rwrist -13.057
rhand -28.8852 34.2878
rfingers 7.12502
rthumb -2.2408 4.31987
lclavicle 8.74078e-014 5.98839e-015
lhumerus -28.0726 13.3175 64.5067
lradius 45.2811
lwrist 178.499
lhand -25.2056 -18.1352
lfingers 7.12502
lthumb 1.31298 11.8405
rfemur -4.40425 14.1669 14.3086
rtibia 19.4011
rfoot -11.2702 0.451186
rtoes 7.61592
lfemur -8.5249 -6.59426 -15.5568
ltibia 18.1779
lfoot -19.9726 26.7183
ltoes 21.4338
166
root 12.2764 18.4562 -7.86092 -4.99801 -41.9171 4.38418
lowerback 0.322212 3.4867 -0.853101
upperback 0.622091 4.65052 -1.09448
thorax 0.479998 2.32316 -0.638051
lowerneck -14.0398 0.785374 9.1187
upperneck 26.1535 -1.28209 -0.614257
head 10.7144 0.175585 -1.94734
rclavicle -8.48857e-014 1.73937e-015
rhumerus -20.7099 29.2175 -103.588
rradius 65.2471
rwrist -13.5645
rhand -29.0514 34.2401
rfingers 7.12502
rthumb -2.40136 4.27384
lclavicle -8.48857e-014 1.73937e-015
lhumerus -27.8057 13.4892 64.9209
lradius 44.2315
lwrist 177.047
lhand -25.2912 -17.9432
lfingers 7.12502
lthumb 1.23032 12.033
rfemur -4.65466 14.1936 14.9499
rtibia 19.0775
rfoot -10.8764 0.759247
rtoes 8.20133
lfemur -8.87308 -6.7197 -14.7529
ltibia 18.3342
lfoot -20.4413 26.8979
ltoes 22.6824
167
root 12.2713 18.4592 -7.94816 -4.28453 -42.0848 3.47302
lowerback 0.437145 3.46798 -0.139837
upperback 0.561682 4.62486 -0.835251
thorax 0.388588 2.31348 -0.778215
lowerneck -14.0719 0.89195 9.50921
upperneck 26.2859 -1.12499 -1.03463
head 10.7731 0.239664 -2.14644
rclavicle -1.80302e-013 8.05078e-015
rhumerus -19.7244 29.6681 -103.501
rradius 64.43
rwrist -14.5792
rhand -29.495 34.2237
rfingers 7.12502
rthumb -2.82975 4.26275
lclavicle -1.80302e-013 8.05078e-015
lhumerus -27.6682 13.935 65.3529
lradius 43.3899
lwrist 175.577
lhand -25.104 -17.6782
lfingers 7.12502
lthumb 1.41112 12.2969
rfemur -4.95083 14.3247 15.8615
rtibia 18.9202
rfoot -10.5724 0.755701
rtoes 8.56632
lfemur -9.25069 -6.19416 -13.6827
ltibia 18.3608
lfoot -19.7888 26.7923
ltoes 22.6587
168
root 12.2673 18.4626 -8.02362 -4.18927 -42.2352 3.30381
lowerback 0.542256 3.47208 -0.0122765
upperback 0.599903 4.63008 -0.641398
thorax 0.363069 2.31627 -0.657049
lowerneck -13.748 0.946661 9.56129
upperneck 25.8385 -0.972097 -1.14991
head 10.5502 0.286001 -2.16832
rclavicle 2.01735e-015 2.68359e-015
rhumerus -18.7811 30.1383 -103.19
rradius 63.4732
rwrist -15.3381
rhand -29.2022 34.2362
rfingers 7.12502
rthumb -2.54696 4.27163
lclavicle 2.01735e-015 2.68359e-015
lhumerus -27.5337 14.4408 65.8995
lradius 42.6302
lwrist 174.26
lhand -25.286 -17.8842
lfingers 7.12502
lthumb 1.2353 12.0919
rfemur -5.16961 14.2939 16.1458
rtibia 18.9475
rfoot -10.3609 0.875967
rtoes 9.0872
lfemur -9.36584 -5.72191 -13.3153
ltibia 18.271
lfoot -19.2936 26.6868
ltoes 23.0245
169
root 12.2616 18.4655 -8.10202 -4.20357 -42.3424 3.50064
lowerback 0.581941 3.48372 -0.220019
upperback 0.594439 4.64444 -0.538571
thorax 0.310444 2.32232 -0.440867
lowerneck -13.7428 1.04487 9.65342
upperneck 25.5938 -0.827627 -1.21145
head 10.4672 0.347188 -2.18344
rclavicle -2.33789e-014 2.38542e-015
rhumerus -17.9633 30.64 -102.861
rradius 62.6007
rwrist -15.5845
rhand -29.2461 33.6934
rfingers 7.12502
rthumb -2.5894 3.7294
lclavicle -2.33789e-014 2.38542e-015
lhumerus -27.3549 14.8756 66.4245
lradius 41.8622
lwrist 173.002
lhand -25.7446 -17.8931
lfingers 7.12502
lthumb 0.792435 12.0852
rfemur -5.55016 14.3735 16.1111
rtibia 18.9724
rfoot -10.1208 0.829959
rtoes 9.19103
lfemur -9.64398 -5.58925 -13.2507
ltibia 18.2014
lfoot -19.319 26.7267
ltoes 23.4429
170
root 12.2532 18.4672 -8.18847 -4.10802 -42.3023 3.8153
lowerback 0.463278 3.4568 -0.531028
upperback 0.543136 4.60815 -0.55607
thorax 0.300997 2.30299 -0.28109
lowerneck -14.02 1.13517 9.9694
upperneck 25.6544 -0.740185 -1.4814
head 10.547 0.389309 -2.3242
rclavicle -2.94077e-014 9.74045e-015
rhumerus -17.3442 31.0016 -102.71
rradius 61.8324
rwrist -15.6973
rhand -29.3793 32.9486
rfingers 7.12502
rthumb -2.71801 2.98617
lclavicle -2.94077e-014 9.74045e-015
lhumerus -27.132 14.9901 66.8495
lradius 41.2407
lwrist 171.898
lhand -26.0034 -17.7134
lfingers 7.12502
lthumb 0.542509 12.2656
rfemur -6.21466 14.5199 15.9344
rtibia 19.1269
rfoot -9.86913 0.599105
rtoes 9.18571
lfemur -10.1119 -5.55697 -13.254
ltibia 17.9577
lfoot -19.2098 26.8533
ltoes 23.4597
171
root 12.2524 18.4682 -8.25467 -3.72171 -42.3732 3.07854
lowerback 0.631767 3.45626 0.209408
upperback 0.627862 4.60924 -0.375306
thorax 0.33695 2.30618 -0.513749
lowerneck -14.1606 1.15316 10.2015
upperneck 25.5587 -0.714373 -1.74449
head 10.5378 0.390234 -2.45347
rclavicle 6.75883e-014 5.36719e-015
rhumerus -17.0268 31.403 -102.52
rradius 61.3273
rwrist -15.7803
rhand -29.2492 32.5143
rfingers 7.12502
rthumb -2.59239 2.55032
lclavicle 6.75883e-014 5.36719e-015
lhumerus -27.0354 15.1767 67.3532
lradius 40.8807
lwrist 170.587
lhand -25.5259 -17.7118
lfingers 7.12502
lthumb 1.00367 12.2656
rfemur -6.3861 14.5532 16.7136
rtibia 19.2938
rfoot -9.71595 0.590812
rtoes 9.78368
lfemur -10.0657 -5.3641 -12.4619
ltibia 17.704
lfoot -18.935 26.8491
ltoes 23.1319
